<svg width="750" height="750" viewBox="0 0 750 750" fill="none" xmlns="http://www.w3.org/2000/svg">
<path d="M250 625C183.696 625 120.107 598.661 73.2234 551.777C26.3393 504.893 5.22149e-05 441.304 5.01073e-05 375C4.79997e-05 308.696 26.3393 245.107 73.2233 198.223C120.107 151.339 183.696 125 250 125L250 375L250 625Z" fill="#FFA858"/>
<path d="M675 145C675 133.954 683.954 125 695 125H730C741.046 125 750 133.954 750 145V605C750 616.046 741.046 625 730 625H695C683.954 625 675 616.046 675 605V145Z" fill="#FFA858"/>
<path d="M329.421 151.156C324.972 138.175 334.618 124.671 348.341 124.671L385.913 124.671C394.468 124.671 402.075 130.112 404.84 138.208L561.55 597.126C565.982 610.103 556.336 623.589 542.624 623.589L505.641 623.589C497.094 623.589 489.492 618.159 486.721 610.074L329.421 151.156Z" fill="#FFA858"/>
</svg>
