<svg width="5089" height="629" viewBox="0 0 5089 629" fill="none" xmlns="http://www.w3.org/2000/svg">
<path d="M250 566C183.696 566 120.107 539.661 73.2233 492.777C26.3392 445.893 -8.82027e-06 382.304 -1.09278e-05 316C-1.30354e-05 249.696 26.3392 186.107 73.2233 139.223C120.107 92.3392 183.696 66 250 66L250 316L250 566Z" fill="#FFA858"/>
<path d="M675 86C675 74.9543 683.954 66 695 66H730C741.046 66 750 74.9543 750 86V546C750 557.046 741.046 566 730 566H695C683.954 566 675 557.046 675 546V86Z" fill="#FFA858"/>
<path d="M329.421 92.156C324.972 79.1749 334.618 65.6711 348.341 65.6711L385.913 65.6711C394.468 65.6711 402.075 71.1121 404.84 79.2079L561.55 538.126C565.982 551.103 556.336 564.589 542.624 564.589L505.641 564.589C497.094 564.589 489.492 559.159 486.721 551.074L329.421 92.156Z" fill="#FFA858"/>
<path d="M1051.4 535.2C1018.6 535.2 988.8 527.4 962 511.8C935.2 496.2 913.8 473.4 897.8 443.4C882.2 413 874.4 376.2 874.4 333C874.4 290.2 882.4 253.6 898.4 223.2C914.8 192.4 936.6 169 963.8 153C991 136.6 1021 128.4 1053.8 128.4C1078.6 128.4 1100.6 133.4 1119.8 143.4C1139 153.4 1154.8 165 1167.2 178.2L1130 223.2C1120 212.8 1108.8 204.6 1096.4 198.6C1084.4 192.2 1070.8 189 1055.6 189C1034.4 189 1015.4 194.8 998.6 206.4C982.2 217.6 969.2 233.8 959.6 255C950.4 276.2 945.8 301.6 945.8 331.2C945.8 376 955.6 411.2 975.2 436.8C994.8 462 1021 474.6 1053.8 474.6C1071.4 474.6 1087 471 1100.6 463.8C1114.2 456.2 1126.6 446.4 1137.8 434.4L1175 478.2C1159 496.6 1140.6 510.8 1119.8 520.8C1099.4 530.4 1076.6 535.2 1051.4 535.2ZM1355.1 535.2C1330.7 535.2 1307.9 529.2 1286.7 517.2C1265.5 504.8 1248.3 487.2 1235.1 464.4C1221.9 441.2 1215.3 413.4 1215.3 381C1215.3 348.2 1221.9 320.4 1235.1 297.6C1248.3 274.4 1265.5 256.8 1286.7 244.8C1307.9 232.4 1330.7 226.2 1355.1 226.2C1379.9 226.2 1402.9 232.4 1424.1 244.8C1445.3 256.8 1462.5 274.4 1475.7 297.6C1488.9 320.4 1495.5 348.2 1495.5 381C1495.5 413.4 1488.9 441.2 1475.7 464.4C1462.5 487.2 1445.3 504.8 1424.1 517.2C1402.9 529.2 1379.9 535.2 1355.1 535.2ZM1355.1 478.8C1376.7 478.8 1393.7 469.8 1406.1 451.8C1418.5 433.8 1424.7 410.2 1424.7 381C1424.7 351.4 1418.5 327.6 1406.1 309.6C1393.7 291.6 1376.7 282.6 1355.1 282.6C1333.5 282.6 1316.5 291.6 1304.1 309.6C1292.1 327.6 1286.1 351.4 1286.1 381C1286.1 410.2 1292.1 433.8 1304.1 451.8C1316.5 469.8 1333.5 478.8 1355.1 478.8ZM1667 535.2C1630.2 535.2 1600.8 521.6 1578.8 494.4C1556.8 467.2 1545.8 429.4 1545.8 381C1545.8 349 1551.6 321.4 1563.2 298.2C1575.2 275 1590.8 257.2 1610 244.8C1629.2 232.4 1649.4 226.2 1670.6 226.2C1687.4 226.2 1701.6 229.2 1713.2 235.2C1725.2 240.8 1736.8 248.6 1748 258.6L1745.6 211.2V104.4H1814.6V528H1757.6L1752.8 496.2H1750.4C1739.6 507 1727 516.2 1712.6 523.8C1698.2 531.4 1683 535.2 1667 535.2ZM1683.8 478.2C1705.8 478.2 1726.4 467.2 1745.6 445.2V307.8C1735.6 298.6 1725.6 292.2 1715.6 288.6C1705.6 285 1695.6 283.2 1685.6 283.2C1666.8 283.2 1650.6 291.8 1637 309C1623.8 325.8 1617.2 349.6 1617.2 380.4C1617.2 412 1623 436.2 1634.6 453C1646.2 469.8 1662.6 478.2 1683.8 478.2ZM2028.47 535.2C2001.27 535.2 1976.67 529.2 1954.67 517.2C1932.67 504.8 1915.27 487.2 1902.47 464.4C1889.67 441.2 1883.27 413.4 1883.27 381C1883.27 349 1889.67 321.4 1902.47 298.2C1915.67 275 1932.67 257.2 1953.47 244.8C1974.27 232.4 1996.07 226.2 2018.87 226.2C2045.67 226.2 2068.07 232.2 2086.07 244.2C2104.07 255.8 2117.67 272.2 2126.87 293.4C2136.07 314.2 2140.67 338.4 2140.67 366C2140.67 380.4 2139.67 391.6 2137.67 399.6H1950.47C1953.67 425.6 1963.07 445.8 1978.67 460.2C1994.27 474.6 2013.87 481.8 2037.47 481.8C2050.27 481.8 2062.07 480 2072.87 476.4C2084.07 472.4 2095.07 467 2105.87 460.2L2129.27 503.4C2115.27 512.6 2099.67 520.2 2082.47 526.2C2065.27 532.2 2047.27 535.2 2028.47 535.2ZM1949.87 352.8H2080.67C2080.67 330 2075.67 312.2 2065.67 299.4C2055.67 286.2 2040.67 279.6 2020.67 279.6C2003.47 279.6 1988.07 286 1974.47 298.8C1961.27 311.2 1953.07 329.2 1949.87 352.8ZM2212.57 528V135.6H2291.17L2360.77 327.6C2365.17 340 2369.37 352.8 2373.37 366C2377.77 378.8 2381.97 391.6 2385.97 404.4H2388.37C2392.77 391.6 2396.97 378.8 2400.97 366C2404.97 352.8 2408.97 340 2412.97 327.6L2480.77 135.6H2559.97V528H2495.77V348.6C2495.77 336.2 2496.17 322.8 2496.97 308.4C2498.17 293.6 2499.37 278.8 2500.57 264C2502.17 249.2 2503.57 235.8 2504.77 223.8H2502.37L2470.57 315L2406.37 491.4H2364.97L2300.17 315L2268.97 223.8H2266.57C2267.77 235.8 2268.97 249.2 2270.17 264C2271.77 278.8 2272.97 293.6 2273.77 308.4C2274.97 322.8 2275.57 336.2 2275.57 348.6V528H2212.57ZM2774.24 535.2C2749.84 535.2 2727.04 529.2 2705.84 517.2C2684.64 504.8 2667.44 487.2 2654.24 464.4C2641.04 441.2 2634.44 413.4 2634.44 381C2634.44 348.2 2641.04 320.4 2654.24 297.6C2667.44 274.4 2684.64 256.8 2705.84 244.8C2727.04 232.4 2749.84 226.2 2774.24 226.2C2799.04 226.2 2822.04 232.4 2843.24 244.8C2864.44 256.8 2881.64 274.4 2894.84 297.6C2908.04 320.4 2914.64 348.2 2914.64 381C2914.64 413.4 2908.04 441.2 2894.84 464.4C2881.64 487.2 2864.44 504.8 2843.24 517.2C2822.04 529.2 2799.04 535.2 2774.24 535.2ZM2774.24 478.8C2795.84 478.8 2812.84 469.8 2825.24 451.8C2837.64 433.8 2843.84 410.2 2843.84 381C2843.84 351.4 2837.64 327.6 2825.24 309.6C2812.84 291.6 2795.84 282.6 2774.24 282.6C2752.64 282.6 2735.64 291.6 2723.24 309.6C2711.24 327.6 2705.24 351.4 2705.24 381C2705.24 410.2 2711.24 433.8 2723.24 451.8C2735.64 469.8 2752.64 478.8 2774.24 478.8ZM3086.14 535.2C3049.34 535.2 3019.94 521.6 2997.94 494.4C2975.94 467.2 2964.94 429.4 2964.94 381C2964.94 349 2970.74 321.4 2982.34 298.2C2994.34 275 3009.94 257.2 3029.14 244.8C3048.34 232.4 3068.54 226.2 3089.74 226.2C3106.54 226.2 3120.74 229.2 3132.34 235.2C3144.34 240.8 3155.94 248.6 3167.14 258.6L3164.74 211.2V104.4H3233.74V528H3176.74L3171.94 496.2H3169.54C3158.74 507 3146.14 516.2 3131.74 523.8C3117.34 531.4 3102.14 535.2 3086.14 535.2ZM3102.94 478.2C3124.94 478.2 3145.54 467.2 3164.74 445.2V307.8C3154.74 298.6 3144.74 292.2 3134.74 288.6C3124.74 285 3114.74 283.2 3104.74 283.2C3085.94 283.2 3069.74 291.8 3056.14 309C3042.94 325.8 3036.34 349.6 3036.34 380.4C3036.34 412 3042.14 436.2 3053.74 453C3065.34 469.8 3081.74 478.2 3102.94 478.2ZM3447.61 535.2C3420.41 535.2 3395.81 529.2 3373.81 517.2C3351.81 504.8 3334.41 487.2 3321.61 464.4C3308.81 441.2 3302.41 413.4 3302.41 381C3302.41 349 3308.81 321.4 3321.61 298.2C3334.81 275 3351.81 257.2 3372.61 244.8C3393.41 232.4 3415.21 226.2 3438.01 226.2C3464.81 226.2 3487.21 232.2 3505.21 244.2C3523.21 255.8 3536.81 272.2 3546.01 293.4C3555.21 314.2 3559.81 338.4 3559.81 366C3559.81 380.4 3558.81 391.6 3556.81 399.6H3369.61C3372.81 425.6 3382.21 445.8 3397.81 460.2C3413.41 474.6 3433.01 481.8 3456.61 481.8C3469.41 481.8 3481.21 480 3492.01 476.4C3503.21 472.4 3514.21 467 3525.01 460.2L3548.41 503.4C3534.41 512.6 3518.81 520.2 3501.61 526.2C3484.41 532.2 3466.41 535.2 3447.61 535.2ZM3369.01 352.8H3499.81C3499.81 330 3494.81 312.2 3484.81 299.4C3474.81 286.2 3459.81 279.6 3439.81 279.6C3422.61 279.6 3407.21 286 3393.61 298.8C3380.41 311.2 3372.21 329.2 3369.01 352.8ZM3625.71 528V233.4H3682.71L3687.51 285.6H3689.91C3700.31 266.4 3712.91 251.8 3727.71 241.8C3742.51 231.4 3757.71 226.2 3773.31 226.2C3787.31 226.2 3798.51 228.2 3806.91 232.2L3794.91 292.2C3789.71 290.6 3784.91 289.4 3780.51 288.6C3776.11 287.8 3770.71 287.4 3764.31 287.4C3752.71 287.4 3740.51 292 3727.71 301.2C3714.91 310 3703.91 325.6 3694.71 348V528H3625.71ZM3849.54 528V233.4H3906.54L3911.34 273H3913.74C3926.94 260.2 3941.34 249.2 3956.94 240C3972.54 230.8 3990.34 226.2 4010.34 226.2C4041.94 226.2 4064.94 236.4 4079.34 256.8C4093.74 277.2 4100.94 306 4100.94 343.2V528H4031.94V352.2C4031.94 327.8 4028.34 310.6 4021.14 300.6C4013.94 290.6 4002.14 285.6 3985.74 285.6C3972.94 285.6 3961.54 288.8 3951.54 295.2C3941.94 301.2 3930.94 310.2 3918.54 322.2V528H3849.54ZM4185.28 528V233.4H4254.28V528H4185.28ZM4220.08 181.8C4207.68 181.8 4197.68 178.2 4190.08 171C4182.48 163.8 4178.68 154.2 4178.68 142.2C4178.68 130.6 4182.48 121.2 4190.08 114C4197.68 106.8 4207.68 103.2 4220.08 103.2C4232.48 103.2 4242.48 106.8 4250.08 114C4257.68 121.2 4261.48 130.6 4261.48 142.2C4261.48 154.2 4257.68 163.8 4250.08 171C4242.48 178.2 4232.48 181.8 4220.08 181.8ZM4318.92 528V490.8L4458.12 288H4334.52V233.4H4544.52V270L4405.92 472.8H4549.32V528H4318.92ZM4728.47 535.2C4701.27 535.2 4676.67 529.2 4654.67 517.2C4632.67 504.8 4615.27 487.2 4602.47 464.4C4589.67 441.2 4583.27 413.4 4583.27 381C4583.27 349 4589.67 321.4 4602.47 298.2C4615.67 275 4632.67 257.2 4653.47 244.8C4674.27 232.4 4696.07 226.2 4718.87 226.2C4745.67 226.2 4768.07 232.2 4786.07 244.2C4804.07 255.8 4817.67 272.2 4826.87 293.4C4836.07 314.2 4840.67 338.4 4840.67 366C4840.67 380.4 4839.67 391.6 4837.67 399.6H4650.47C4653.67 425.6 4663.07 445.8 4678.67 460.2C4694.27 474.6 4713.87 481.8 4737.47 481.8C4750.27 481.8 4762.07 480 4772.87 476.4C4784.07 472.4 4795.07 467 4805.87 460.2L4829.27 503.4C4815.27 512.6 4799.67 520.2 4782.47 526.2C4765.27 532.2 4747.27 535.2 4728.47 535.2ZM4649.87 352.8H4780.67C4780.67 330 4775.67 312.2 4765.67 299.4C4755.67 286.2 4740.67 279.6 4720.67 279.6C4703.47 279.6 4688.07 286 4674.47 298.8C4661.27 311.2 4653.07 329.2 4649.87 352.8ZM4906.57 528V233.4H4963.57L4968.37 285.6H4970.77C4981.17 266.4 4993.77 251.8 5008.57 241.8C5023.37 231.4 5038.57 226.2 5054.17 226.2C5068.17 226.2 5079.37 228.2 5087.77 232.2L5075.77 292.2C5070.57 290.6 5065.77 289.4 5061.37 288.6C5056.97 287.8 5051.57 287.4 5045.17 287.4C5033.57 287.4 5021.37 292 5008.57 301.2C4995.77 310 4984.77 325.6 4975.57 348V528H4906.57Z" fill="white"/>
</svg>
